<svg width="26" height="22" viewBox="0 0 26 22" fill="none" xmlns="http://www.w3.org/2000/svg">
<path d="M17.2692 15.3329C19.9541 13.7259 21.902 11.1948 22.7166 8.25457L24.6329 8.67886C24.7121 8.69701 24.7949 8.69412 24.8726 8.67047C24.9502 8.64683 25.0197 8.60333 25.0737 8.54463C25.1283 8.48632 25.1651 8.41468 25.1802 8.33756C25.1953 8.26043 25.188 8.1808 25.1592 8.10739L22.0868 0.275711C22.0598 0.209851 22.0164 0.151328 21.9606 0.105199C21.9047 0.0590696 21.8381 0.0267221 21.7663 0.0109512C21.6946 -0.00481979 21.6199 -0.00353965 21.5488 0.0146809C21.4777 0.0329014 21.4122 0.0675142 21.3581 0.115529L15.0291 5.85615C14.9712 5.91038 14.9294 5.97852 14.9081 6.05351C14.8867 6.12851 14.8866 6.20763 14.9077 6.2827C14.9288 6.35776 14.9704 6.42603 15.0281 6.48043C15.0858 6.53484 15.1576 6.5734 15.236 6.59213L17.1388 7.01639C16.4568 9.41205 14.9662 11.5213 12.9017 13.0121C10.8373 14.5029 8.31631 15.2904 5.73573 15.2507C3.71473 14.35 2.0096 12.903 0.828146 11.086C0.763749 10.9909 0.663186 10.9239 0.548039 10.8993C0.432893 10.8748 0.312341 10.8947 0.212257 10.9547C0.112173 11.0148 0.0405344 11.1102 0.0127165 11.2205C-0.0151014 11.3308 0.00311858 11.4472 0.063466 11.5447C3.53537 17.0719 11.6387 18.8693 17.2692 15.3329Z" fill="#171717"/>
<path d="M17.2692 15.3329C19.9541 13.7259 21.902 11.1948 22.7166 8.25457L24.6329 8.67886C24.7121 8.69701 24.7949 8.69412 24.8726 8.67047C24.9502 8.64683 25.0197 8.60333 25.0737 8.54463C25.1283 8.48632 25.1651 8.41468 25.1802 8.33756C25.1953 8.26043 25.188 8.1808 25.1592 8.10739L22.0868 0.275711C22.0598 0.209851 22.0164 0.151328 21.9606 0.105199C21.9047 0.0590696 21.8381 0.0267221 21.7663 0.0109512C21.6946 -0.00481979 21.6199 -0.00353965 21.5488 0.0146809C21.4777 0.0329014 21.4122 0.0675142 21.3581 0.115529L15.0291 5.85615C14.9712 5.91038 14.9294 5.97852 14.9081 6.05351C14.8867 6.12851 14.8866 6.20763 14.9077 6.2827C14.9288 6.35776 14.9704 6.42603 15.0281 6.48043C15.0858 6.53484 15.1576 6.5734 15.236 6.59213L17.1388 7.01639C16.4568 9.41205 14.9662 11.5213 12.9017 13.0121C10.8373 14.5029 8.31631 15.2904 5.73573 15.2507C3.71473 14.35 2.0096 12.903 0.828146 11.086C0.763749 10.9909 0.663186 10.9239 0.548039 10.8993C0.432893 10.8748 0.312341 10.8947 0.212257 10.9547C0.112173 11.0148 0.0405344 11.1102 0.0127165 11.2205C-0.0151014 11.3308 0.00311858 11.4472 0.063466 11.5447C3.53537 17.0719 11.6387 18.8693 17.2692 15.3329Z" fill="url(#paint0_linear_483_632)"/>
<path d="M13.4907 21.5667C13.4905 21.6236 13.502 21.68 13.5246 21.7326C13.5471 21.7852 13.5802 21.833 13.622 21.8733C13.6638 21.9135 13.7135 21.9454 13.7682 21.9671C13.8228 21.9887 13.8814 21.9998 13.9406 21.9996H17.5391C17.5983 21.9998 17.6569 21.9887 17.7115 21.9671C17.7662 21.9454 17.8159 21.9135 17.8577 21.8733C17.8995 21.833 17.9326 21.7852 17.9551 21.7326C17.9777 21.68 17.9892 21.6236 17.989 21.5667V15.917C16.6179 16.7841 15.0933 17.4018 13.4907 17.7396L13.4907 21.5667Z" fill="#171717"/>
<path d="M13.4907 21.5667C13.4905 21.6236 13.502 21.68 13.5246 21.7326C13.5471 21.7852 13.5802 21.833 13.622 21.8733C13.6638 21.9135 13.7135 21.9454 13.7682 21.9671C13.8228 21.9887 13.8814 21.9998 13.9406 21.9996H17.5391C17.5983 21.9998 17.6569 21.9887 17.7115 21.9671C17.7662 21.9454 17.8159 21.9135 17.8577 21.8733C17.8995 21.833 17.9326 21.7852 17.9551 21.7326C17.9777 21.68 17.9892 21.6236 17.989 21.5667V15.917C16.6179 16.7841 15.0933 17.4018 13.4907 17.7396L13.4907 21.5667Z" fill="url(#paint1_linear_483_632)"/>
<path d="M3.14465 18.5366C3.02546 18.537 2.91125 18.5827 2.82696 18.6638C2.74268 18.7449 2.69518 18.8548 2.69483 18.9695V21.5671C2.69462 21.624 2.70612 21.6804 2.72865 21.733C2.75118 21.7856 2.78431 21.8334 2.82612 21.8737C2.86793 21.9139 2.9176 21.9458 2.97227 21.9675C3.02694 21.9892 3.08552 22.0002 3.14465 22H6.74325C6.80237 22.0002 6.86096 21.9892 6.91563 21.9675C6.9703 21.9458 7.01997 21.9139 7.06178 21.8737C7.10359 21.8334 7.13672 21.7856 7.15925 21.733C7.18178 21.6804 7.19328 21.624 7.19307 21.5671V18.9695C7.19272 18.8548 7.14522 18.7449 7.06093 18.6638C6.97665 18.5827 6.86244 18.537 6.74325 18.5366H3.14465Z" fill="#171717"/>
<path d="M3.14465 18.5366C3.02546 18.537 2.91125 18.5827 2.82696 18.6638C2.74268 18.7449 2.69518 18.8548 2.69483 18.9695V21.5671C2.69462 21.624 2.70612 21.6804 2.72865 21.733C2.75118 21.7856 2.78431 21.8334 2.82612 21.8737C2.86793 21.9139 2.9176 21.9458 2.97227 21.9675C3.02694 21.9892 3.08552 22.0002 3.14465 22H6.74325C6.80237 22.0002 6.86096 21.9892 6.91563 21.9675C6.9703 21.9458 7.01997 21.9139 7.06178 21.8737C7.10359 21.8334 7.13672 21.7856 7.15925 21.733C7.18178 21.6804 7.19328 21.624 7.19307 21.5671V18.9695C7.19272 18.8548 7.14522 18.7449 7.06093 18.6638C6.97665 18.5827 6.86244 18.537 6.74325 18.5366H3.14465Z" fill="url(#paint2_linear_483_632)"/>
<path d="M8.09278 17.792V21.5671C8.09257 21.624 8.10407 21.6804 8.1266 21.733C8.14913 21.7856 8.18226 21.8334 8.22407 21.8737C8.26588 21.9139 8.31555 21.9458 8.37022 21.9675C8.42489 21.9892 8.48347 22.0002 8.5426 22H12.1412C12.2003 22.0002 12.2589 21.9892 12.3136 21.9675C12.3682 21.9458 12.4179 21.9139 12.4597 21.8737C12.5015 21.8334 12.5347 21.7856 12.5572 21.733C12.5797 21.6804 12.5912 21.624 12.591 21.5671V17.8959C11.0964 18.1088 9.57502 18.0736 8.09278 17.792Z" fill="#171717"/>
<path d="M8.09278 17.792V21.5671C8.09257 21.624 8.10407 21.6804 8.1266 21.733C8.14913 21.7856 8.18226 21.8334 8.22407 21.8737C8.26588 21.9139 8.31555 21.9458 8.37022 21.9675C8.42489 21.9892 8.48347 22.0002 8.5426 22H12.1412C12.2003 22.0002 12.2589 21.9892 12.3136 21.9675C12.3682 21.9458 12.4179 21.9139 12.4597 21.8737C12.5015 21.8334 12.5347 21.7856 12.5572 21.733C12.5797 21.6804 12.5912 21.624 12.591 21.5671V17.8959C11.0964 18.1088 9.57502 18.0736 8.09278 17.792Z" fill="url(#paint3_linear_483_632)"/>
<path d="M18.8887 15.298V21.5667C18.8885 21.6236 18.9 21.68 18.9225 21.7326C18.945 21.7853 18.9782 21.8331 19.02 21.8733C19.0618 21.9135 19.1114 21.9454 19.1661 21.9671C19.2208 21.9888 19.2794 21.9999 19.3385 21.9997H22.9371C22.9962 21.9999 23.0548 21.9888 23.1095 21.9671C23.1641 21.9454 23.2138 21.9135 23.2556 21.8733C23.2974 21.8331 23.3306 21.7853 23.3531 21.7326C23.3756 21.68 23.3871 21.6236 23.3869 21.5667V9.29326L23.3329 9.28027C22.4943 11.661 20.9492 13.7531 18.8887 15.298Z" fill="#171717"/>
<path d="M18.8887 15.298V21.5667C18.8885 21.6236 18.9 21.68 18.9225 21.7326C18.945 21.7853 18.9782 21.8331 19.02 21.8733C19.0618 21.9135 19.1114 21.9454 19.1661 21.9671C19.2208 21.9888 19.2794 21.9999 19.3385 21.9997H22.9371C22.9962 21.9999 23.0548 21.9888 23.1095 21.9671C23.1641 21.9454 23.2138 21.9135 23.2556 21.8733C23.2974 21.8331 23.3306 21.7853 23.3531 21.7326C23.3756 21.68 23.3871 21.6236 23.3869 21.5667V9.29326L23.3329 9.28027C22.4943 11.661 20.9492 13.7531 18.8887 15.298Z" fill="url(#paint4_linear_483_632)"/>
<defs>
<linearGradient id="paint0_linear_483_632" x1="12.5939" y1="17.1547" x2="12.5939" y2="1.8405e-05" gradientUnits="userSpaceOnUse">
<stop stop-color="#00B59C"/>
<stop offset="1" stop-color="#9CFFAC"/>
</linearGradient>
<linearGradient id="paint1_linear_483_632" x1="15.7398" y1="21.9996" x2="15.7398" y2="15.917" gradientUnits="userSpaceOnUse">
<stop stop-color="#00B59C"/>
<stop offset="1" stop-color="#9CFFAC"/>
</linearGradient>
<linearGradient id="paint2_linear_483_632" x1="4.94395" y1="22" x2="4.94395" y2="18.5366" gradientUnits="userSpaceOnUse">
<stop stop-color="#00B59C"/>
<stop offset="1" stop-color="#9CFFAC"/>
</linearGradient>
<linearGradient id="paint3_linear_483_632" x1="10.3419" y1="22" x2="10.3419" y2="17.792" gradientUnits="userSpaceOnUse">
<stop stop-color="#00B59C"/>
<stop offset="1" stop-color="#9CFFAC"/>
</linearGradient>
<linearGradient id="paint4_linear_483_632" x1="21.1378" y1="21.9997" x2="21.1378" y2="9.28029" gradientUnits="userSpaceOnUse">
<stop stop-color="#00B59C"/>
<stop offset="1" stop-color="#9CFFAC"/>
</linearGradient>
</defs>
</svg>
