<svg width="24" height="24" viewBox="0 0 24 24" fill="none" xmlns="http://www.w3.org/2000/svg">
    <path
        d="M19.0433 14.4502C18.5398 14.7502 18.0624 14.9835 17.6371 15.1501C17.3419 15.2751 17.0208 15.3335 16.7083 15.3335C16.3958 15.3335 16.0746 15.2751 15.7794 15.1501C15.0242 14.8501 14.1041 14.3502 13.21 13.6668H4.92006L6.20478 10.8336C6.34367 10.5336 6.65617 10.3336 6.99471 10.3336H10.4148C10.1718 9.81692 9.98082 9.2586 9.87665 8.66694H6.99471C5.96172 8.66694 5.02422 9.2586 4.60756 10.1669L2.88881 13.9585C2.88013 13.9752 2.88881 13.9918 2.88013 14.0168C1.8211 14.5335 1.08325 15.5751 1.08325 16.7918V19.9167C1.08325 21.0667 2.05547 22 3.25339 22C4.45131 22 5.42353 21.0667 5.42353 19.9167V19.5001H15.8402V19.9167C15.8402 21.0667 16.8124 22 18.0103 22C19.2083 22 20.1805 21.0667 20.1805 19.9167V16.7918C20.1805 15.8501 19.7378 15.0085 19.0433 14.4502ZM6.29158 17.8334H4.55547C4.07804 17.8334 3.68742 17.4584 3.68742 17.0001C3.68742 16.5418 4.07804 16.1668 4.55547 16.1668H6.29158C6.76902 16.1668 7.15964 16.5418 7.15964 17.0001C7.15964 17.4584 6.76902 17.8334 6.29158 17.8334ZM16.7083 17.8334H14.9721C14.4947 17.8334 14.1041 17.4584 14.1041 17.0001C14.1041 16.5418 14.4947 16.1668 14.9721 16.1668H16.7083C17.1857 16.1668 17.5763 16.5418 17.5763 17.0001C17.5763 17.4584 17.1857 17.8334 16.7083 17.8334Z"
        fill="white" />
    <path
        d="M21.4747 3.52205L16.9175 2.03375C16.782 1.98875 16.6345 1.98875 16.4991 2.03375L11.9418 3.52205C11.677 3.60788 11.4999 3.84621 11.4999 4.11371V7.46197C11.4999 11.5486 16.2517 13.5352 16.4539 13.6177C16.6171 13.6835 16.7994 13.6835 16.9626 13.6177C17.1648 13.5352 21.9166 11.5486 21.9166 7.46197V4.11371C21.9166 3.84621 21.7395 3.60788 21.4747 3.52205ZM19.5607 6.68199L17.1735 9.59859C16.8697 9.97108 16.3003 10.0253 15.927 9.71692L14.4079 8.46695C14.0433 8.16779 14.0008 7.64113 14.3142 7.29197C14.6258 6.94281 15.1744 6.90282 15.5372 7.20198L16.3688 7.88613L18.1961 5.65367C18.4921 5.29202 19.0372 5.22785 19.4148 5.51368C19.7916 5.79617 19.8576 6.32033 19.5607 6.68199Z"
        fill="white" />
</svg>