<svg width="61" height="60" viewBox="0 0 61 60" fill="none" xmlns="http://www.w3.org/2000/svg">
<path fill-rule="evenodd" clip-rule="evenodd" d="M30.125 9.69231C18.9094 9.69231 9.81731 18.7844 9.81731 30C9.81731 41.2156 18.9094 50.3077 30.125 50.3077C41.3406 50.3077 50.4327 41.2156 50.4327 30C50.4327 18.7844 41.3406 9.69231 30.125 9.69231ZM6.125 30C6.125 16.7452 16.8702 6 30.125 6C43.3798 6 54.125 16.7452 54.125 30C54.125 43.2548 43.3798 54 30.125 54C16.8702 54 6.125 43.2548 6.125 30Z" fill="#FF9909"/>
<path fill-rule="evenodd" clip-rule="evenodd" d="M30.125 15.8462C31.1446 15.8462 31.9712 16.6727 31.9712 17.6923V28.1538H37.5096C38.5292 28.1538 39.3558 28.9804 39.3558 30C39.3558 31.0196 38.5292 31.8462 37.5096 31.8462H31.3558C29.6564 31.8462 28.2788 30.4686 28.2788 28.7692V17.6923C28.2788 16.6727 29.1054 15.8462 30.125 15.8462Z" fill="#FF9909"/>
</svg>
