<svg width="40" height="41" viewBox="0 0 40 41" fill="none" xmlns="http://www.w3.org/2000/svg">
<rect y="0.5" width="40" height="40" rx="20" fill="#0072DE"/>
<g clip-path="url(#clip0_646_1321)">
<path d="M14.5781 19.9258C11.525 19.9258 9.04102 22.4097 9.04102 25.4629C9.04102 28.5161 11.525 31 14.5781 31C17.6313 31 20.1152 28.5161 20.1152 25.4629C20.1152 22.4097 17.6313 19.9258 14.5781 19.9258ZM17.0229 24.7905L14.1518 27.6616C14.0317 27.7817 13.8743 27.8418 13.7168 27.8418C13.5593 27.8418 13.4019 27.7817 13.2818 27.6616L12.0513 26.4311C11.811 26.1909 11.811 25.8013 12.0513 25.561C12.2915 25.3208 12.6811 25.3208 12.9214 25.561L13.7168 26.3565L16.1529 23.9204C16.3931 23.6802 16.7827 23.6802 17.0229 23.9204C17.2632 24.1607 17.2632 24.5503 17.0229 24.7905Z" fill="white"/>
<path d="M25.2422 15.332C24.9024 15.332 24.627 15.0566 24.627 14.7168V10H15.8086C14.7909 10 13.9629 10.828 13.9629 11.8457V18.7236C14.1656 18.7052 14.3707 18.6953 14.5781 18.6953C16.6752 18.6953 18.5524 19.6541 19.7947 21.1562H26.4727C26.8124 21.1562 27.0879 21.4317 27.0879 21.7715C27.0879 22.1113 26.8124 22.3867 26.4727 22.3867H20.6053C20.9899 23.1371 21.2378 23.9685 21.3174 24.8477H26.4727C26.8124 24.8477 27.0879 25.1231 27.0879 25.4629C27.0879 25.8027 26.8124 26.0781 26.4727 26.0781H21.3174C21.1334 28.11 20.0478 29.8854 18.4647 31H28.1133C29.131 31 29.959 30.172 29.959 29.1543V15.332H25.2422ZM26.4727 18.6953H17.4492C17.1094 18.6953 16.834 18.4199 16.834 18.0801C16.834 17.7403 17.1094 17.4648 17.4492 17.4648H26.4727C26.8124 17.4648 27.0879 17.7403 27.0879 18.0801C27.0879 18.4199 26.8124 18.6953 26.4727 18.6953Z" fill="white"/>
<path d="M25.8574 10.3604V14.1017H29.5985L25.8574 10.3604Z" fill="white"/>
</g>
<defs>
<clipPath id="clip0_646_1321">
<rect width="21" height="21" fill="white" transform="translate(9 10)"/>
</clipPath>
</defs>
</svg>
