<svg width="40" height="41" viewBox="0 0 40 41" fill="none" xmlns="http://www.w3.org/2000/svg">
<rect y="0.5" width="40" height="40" rx="20" fill="#9DA5AF"/>
<path d="M21.1484 8.35156V10.7031C22.8255 10.9219 24.3294 11.5326 25.6602 12.5352C26.9909 13.5378 27.9753 14.8047 28.6133 16.3359C29.2513 17.8672 29.4792 19.4714 29.2969 21.1484C29.0052 23.263 28.1029 25.0768 26.5898 26.5898C25.0768 28.1029 23.263 28.987 21.1484 29.2422V31.5938C23.263 31.375 25.1589 30.6549 26.8359 29.4336C28.513 28.2122 29.7799 26.6628 30.6367 24.7852C31.4935 22.9076 31.8125 20.9297 31.5938 18.8516C31.4479 17.0286 30.8919 15.3516 29.9258 13.8203C28.9596 12.2891 27.7109 11.0404 26.1797 10.0742C24.6484 9.10807 22.9714 8.53385 21.1484 8.35156ZM18.8516 8.40625C16.4818 8.625 14.4036 9.48177 12.6172 10.9766L14.2578 12.6719C15.6068 11.6146 17.138 10.9766 18.8516 10.7578V8.40625ZM10.9766 12.6172C9.48177 14.4036 8.625 16.4818 8.40625 18.8516H10.7031C10.9583 17.138 11.5964 15.6068 12.6172 14.2578L10.9766 12.6172ZM8.40625 21.1484C8.625 23.4818 9.48177 25.5599 10.9766 27.3828L12.6172 25.7422C11.5599 24.3568 10.9401 22.8255 10.7578 21.1484H8.40625ZM14.2578 27.4375L12.6172 29.0234C14.4401 30.5182 16.5182 31.3932 18.8516 31.6484V29.3516C17.1745 29.1328 15.6432 28.4948 14.2578 27.4375ZM21.1484 27H18.8516V24.6484H21.1484V27ZM21.1484 23.5H18.8516C18.8516 22.5521 19.0703 21.7682 19.5078 21.1484C19.763 20.7474 20.2188 20.2917 20.875 19.7812C21.3854 19.4167 21.7318 19.125 21.9141 18.9062C22.2057 18.5417 22.3516 18.1224 22.3516 17.6484C22.3516 17.0286 22.1237 16.4909 21.668 16.0352C21.2122 15.5794 20.6562 15.3516 20 15.3516C19.3438 15.3516 18.7878 15.5794 18.332 16.0352C17.8763 16.4909 17.6484 17.0286 17.6484 17.6484H15.3516C15.3516 16.3724 15.8073 15.2786 16.7188 14.3672C17.6302 13.4557 18.724 13 20 13C21.276 13 22.3698 13.4557 23.2812 14.3672C24.1927 15.2786 24.6484 16.3724 24.6484 17.6484C24.6484 18.3411 24.4661 18.9427 24.1016 19.4531C23.8828 19.7812 23.4818 20.2005 22.8984 20.7109C22.3151 21.2214 21.9141 21.6224 21.6953 21.9141C21.3307 22.388 21.1484 22.9167 21.1484 23.5Z" fill="white"/>
</svg>
