<svg width="40" height="41" viewBox="0 0 40 41" fill="none" xmlns="http://www.w3.org/2000/svg">
<rect y="0.5" width="40" height="40" rx="20" fill="#0072DE"/>
<path d="M29.0781 23.9922C29.625 22.7161 29.8984 21.3854 29.8984 20C29.8984 18.6146 29.625 17.2839 29.0781 16.0078L25.9062 17.4844C26.2344 18.2865 26.3984 19.125 26.3984 20C26.3984 20.875 26.2344 21.7135 25.9062 22.5156L29.0781 23.9922ZM23.9922 10.9219C22.7161 10.375 21.3854 10.1016 20 10.1016C18.6146 10.1016 17.2839 10.375 16.0078 10.9219L17.4844 14.0938C18.2865 13.7656 19.125 13.6016 20 13.6016C20.875 13.6016 21.7318 13.7656 22.5703 14.0938L23.9922 10.9219ZM10.9219 16.0078C10.375 17.2839 10.1016 18.6146 10.1016 20C10.1016 21.3854 10.375 22.7161 10.9219 23.9922L14.0938 22.5156C13.7656 21.7135 13.6016 20.875 13.6016 20C13.6016 19.125 13.7656 18.2682 14.0938 17.4297L10.9219 16.0078ZM16.0078 29.0781C17.2839 29.625 18.6146 29.8984 20 29.8984C21.3854 29.8984 22.7161 29.625 23.9922 29.0781L22.5703 25.9062C21.7318 26.2344 20.875 26.3984 20 26.3984C19.125 26.3984 18.2865 26.2344 17.4844 25.9062L16.0078 29.0781ZM20 8.35156C21.5312 8.35156 23.0169 8.64323 24.457 9.22656C25.8971 9.8099 27.1641 10.6484 28.2578 11.7422C29.3516 12.8359 30.1901 14.1029 30.7734 15.543C31.3568 16.9831 31.6484 18.4688 31.6484 20C31.6484 21.5312 31.3568 23.0169 30.7734 24.457C30.1901 25.8971 29.3516 27.1641 28.2578 28.2578C27.1641 29.3516 25.8971 30.1901 24.457 30.7734C23.0169 31.3568 21.5312 31.6484 20 31.6484C18.4688 31.6484 16.9831 31.3568 15.543 30.7734C14.1029 30.1901 12.8359 29.3516 11.7422 28.2578C10.6484 27.1641 9.8099 25.8971 9.22656 24.457C8.64323 23.0169 8.35156 21.5312 8.35156 20C8.35156 18.4688 8.64323 16.9831 9.22656 15.543C9.8099 14.1029 10.6484 12.8359 11.7422 11.7422C12.8359 10.6484 14.1029 9.8099 15.543 9.22656C16.9831 8.64323 18.4688 8.35156 20 8.35156ZM20 15.3516C18.724 15.3516 17.6302 15.8073 16.7188 16.7188C15.8073 17.6302 15.3516 18.724 15.3516 20C15.3516 21.276 15.8073 22.3698 16.7188 23.2812C17.6302 24.1927 18.724 24.6484 20 24.6484C21.276 24.6484 22.3698 24.1927 23.2812 23.2812C24.1927 22.3698 24.6484 21.276 24.6484 20C24.6484 18.724 24.1927 17.6302 23.2812 16.7188C22.3698 15.8073 21.276 15.3516 20 15.3516Z" fill="white"/>
</svg>
