<svg width="200" height="186" viewBox="0 0 200 186" fill="none" xmlns="http://www.w3.org/2000/svg">
<path d="M191.615 125.745C171.354 169.199 117.872 187.864 75.9679 184.681C64.5265 183.812 41.506 182.064 23.5313 166.467C-10.9877 136.514 -5.6714 73.903 27.3732 37.0413C31.6287 32.2943 61.0843 0.489641 106.985 0.915368C140.592 1.22709 164.18 18.6463 167.048 20.8164C170.671 23.5578 178.663 30.0723 185.865 40.4071C202.788 64.6904 204.276 98.59 191.615 125.745Z" fill="url(#paint0_linear_101_3116)"/>
<path d="M195.979 67.1512C196.672 66.6681 197.604 67.1193 197.653 67.958C198.39 80.796 199.654 155.753 130.208 171.215C130.208 171.215 116.795 122.379 195.979 67.1512Z" fill="#91B3FA"/>
<path opacity="0.48" d="M191.785 79.5617C189.929 83.2697 188.001 86.9365 186.041 90.5884C184.079 94.239 182.077 97.8678 180.033 101.474C177.989 105.079 175.904 108.662 173.777 112.221C171.649 115.778 169.467 119.304 167.242 122.803C162.78 129.792 158.116 136.66 153.094 143.268C150.593 146.579 147.974 149.803 145.238 152.926C142.498 156.045 139.633 159.063 136.543 161.848C136.373 162.001 136.115 161.989 135.968 161.821C135.82 161.653 135.838 161.392 136.008 161.239L136.009 161.238L136.011 161.237C139.08 158.497 141.94 155.513 144.679 152.425C147.414 149.332 150.037 146.134 152.545 142.845C157.582 136.283 162.269 129.45 166.757 122.492C168.995 119.009 171.191 115.498 173.333 111.955C175.474 108.41 177.574 104.841 179.633 101.248C181.692 97.6545 183.71 94.038 185.687 90.3994C187.662 86.7603 189.608 83.1026 191.477 79.4109L191.478 79.4094C191.522 79.3229 191.626 79.287 191.71 79.3293C191.795 79.3715 191.829 79.4752 191.785 79.5617Z" fill="white"/>
<path d="M184.021 0.346629C184.766 -0.356437 185.951 0.0671441 186.147 1.10311C189.146 16.9606 203.036 109.996 122.885 139.473C122.885 139.473 98.8418 80.7157 184.021 0.346629Z" fill="#BDD0FB"/>
<path opacity="0.48" d="M181.619 13.0855C181.737 13.1269 181.8 13.2606 181.761 13.3847C180.239 18.2972 178.623 23.1704 176.966 28.0306C175.307 32.8895 173.596 37.7282 171.831 42.5452C168.301 52.1793 164.568 61.732 160.558 71.1576C156.542 80.5787 152.264 89.8842 147.512 98.9269C145.149 103.456 142.631 107.897 139.953 112.232C137.27 116.562 134.421 120.79 131.259 124.766C131.071 125.003 130.737 125.033 130.513 124.834C130.289 124.635 130.26 124.281 130.449 124.044L130.45 124.042L130.452 124.04C133.595 120.128 136.445 115.949 139.132 111.66C141.815 107.365 144.344 102.958 146.721 98.4581C151.501 89.4736 155.816 80.2112 159.871 70.828C163.921 61.4401 167.697 51.919 171.271 42.3138C173.058 37.5111 174.792 32.6861 176.473 27.8405C178.152 22.9948 179.792 18.1306 181.335 13.2376L181.336 13.2356C181.375 13.1112 181.502 13.044 181.619 13.0855Z" fill="white"/>
<path d="M135.889 178.651L37.0551 177.282C28.9247 177.169 22.3553 172.06 22.2451 165.764C21.7561 137.799 21.0444 40.0053 21.9716 13.4038C22.131 8.83177 26.916 5.19245 32.8225 5.14225C55.7911 4.94722 111.017 4.87872 136.601 8.31757C141.989 9.04175 145.969 12.6258 146.077 16.856C146.675 40.2896 148.109 143.967 146.917 170.552C146.711 175.137 141.815 178.733 135.889 178.651Z" fill="url(#paint1_linear_101_3116)"/>
<path d="M134.222 173.865L37.0425 172.519C32.1297 172.451 28.1733 169.445 28.1579 165.769L28.0533 17.359C28.038 13.7143 32.0034 10.7818 36.8744 10.8357L133.189 11.9216C136.672 11.9601 139.493 14.0755 139.537 16.6815L141.237 168.648C141.286 171.563 138.117 173.919 134.222 173.865Z" fill="#91B3FA"/>
<path d="M146.36 155.44C145.232 152.209 143.246 149.338 140.643 147.011C137.352 144.068 133.074 141.995 128.298 141.17C128.298 141.17 122.099 140.167 115.297 138.527C113.075 137.991 110.697 138.44 108.915 139.722C104.163 143.14 95.2396 147.589 81.2231 147.289C68.5263 147.018 61.2289 143.46 57.2729 140.398C55.4319 138.973 52.8961 138.466 50.5402 139.071C45.4191 140.386 41.1596 141.17 41.1596 141.17C32.6065 142.648 21.7324 148.124 19.1776 155.44C16.73 162.448 14.8333 169.94 14.5669 179.599C14.47 183.111 15.9627 184.989 19.9649 184.989L146.278 185.999C150.28 185.999 151.413 181.426 151.316 177.914C151.049 168.256 148.807 162.448 146.36 155.44Z" fill="url(#paint2_linear_101_3116)"/>
<path d="M81.223 147.889C98.506 148.284 110.623 141.792 114.147 138.342C107.14 136.31 97.9887 132.822 97.8792 129.931L96.824 102.075H68.9885L67.9333 129.931C67.8164 133.017 57.1491 137.049 50.54 139.124C53.3658 142.504 64.8423 147.515 81.223 147.889Z" fill="url(#paint3_linear_101_3116)"/>
<path d="M58.4928 77.3723C58.4928 77.3723 62.4985 117.991 74.1966 122.357C74.1966 122.357 83.6891 126.184 91.6186 121.854C91.6186 121.854 104.698 110.712 103.757 77.6815C103.757 77.6815 104.84 58.5433 82.2817 56.9595C55.8497 55.1038 58.4928 77.3723 58.4928 77.3723Z" fill="url(#paint4_linear_101_3116)"/>
<path d="M101.445 91.6541C101.445 91.6541 103.428 86.0869 106.732 86.0869C110.036 86.0869 106.071 100.933 101.445 100.933V91.6541Z" fill="url(#paint5_linear_101_3116)"/>
<path d="M62.8371 90.3842C62.8371 90.3842 60.1115 85.6695 56.8375 86.0867C53.5638 86.5037 58.2538 101.491 62.8371 100.907V90.3842Z" fill="url(#paint6_linear_101_3116)"/>
<path d="M62.0984 87.655C60.8293 88.1823 59.3491 87.5938 58.8751 86.3721C58.0413 84.2228 56.7608 80.9565 55.7239 78.4603C54.0353 74.3958 45.11 69.2022 54.5177 59.0408C63.9254 48.8794 69.2532 59.9078 75.5146 56.9904C81.776 54.073 89.2539 47.2987 95.767 51.5891C102.28 55.8795 97.9379 59.944 100.109 61.0731C102.28 62.2022 105.657 56.3311 108.069 64.2344C109.936 70.3492 106.896 81.6066 105.424 86.3887C105.067 87.5501 103.655 88.1042 102.52 87.529C101.92 87.2255 101.525 86.6615 101.467 86.026C101.304 84.2241 100.921 80.2321 100.35 75.7507C99.5732 69.6524 93.6276 78.1013 82.0331 79.297C70.4385 80.4926 71.4034 74.6216 65.8553 74.6216C63.5147 74.6216 63.4437 82.2644 63.5219 85.5589C63.5432 86.4624 62.9808 87.2885 62.0984 87.655Z" fill="url(#paint7_linear_101_3116)"/>
<g opacity="0.31">
<path d="M58.6822 81.9772C58.9184 81.8335 58.9286 81.5097 58.8685 81.2308C58.8414 81.0889 58.7853 80.9456 58.7359 80.799C58.6841 80.6541 58.6409 80.507 58.5821 80.3645C58.3587 79.7904 58.0792 79.2368 57.7786 78.6935C57.1571 77.615 56.45 76.5768 55.7557 75.5185C55.4132 74.9866 55.0699 74.4523 54.7628 73.8941C54.4548 73.3377 54.162 72.7674 53.9428 72.1663C53.4772 70.9711 53.2732 69.6901 53.2922 68.4188C53.332 67.1475 53.5851 65.878 54.0852 64.6911C54.5778 63.503 55.3199 62.4034 56.2459 61.4722C58.1028 59.6145 60.6909 58.4198 63.3584 58.2317C63.4092 58.2281 63.4536 58.2638 63.4574 58.3114C63.461 58.356 63.4269 58.3953 63.3808 58.4031C60.7972 58.8297 58.4297 60.0855 56.7147 61.873C55.0034 63.6639 54.0299 66.032 53.9574 68.434C53.9318 69.6332 54.0972 70.8418 54.523 71.9778C54.9301 73.1219 55.5455 74.2064 56.1969 75.2747C56.8491 76.3439 57.5506 77.4023 58.1211 78.5329C58.4012 79.1003 58.6598 79.6785 58.8604 80.2766C58.9134 80.4249 58.9509 80.5783 58.9967 80.7288C59.0402 80.8786 59.0887 81.0298 59.1099 81.1947C59.1318 81.3566 59.1375 81.5246 59.097 81.694C59.0599 81.8617 58.9491 82.0353 58.7773 82.1252C58.7328 82.1485 58.6766 82.1336 58.6517 82.092C58.6279 82.052 58.6419 82.0018 58.6822 81.9772Z" fill="white"/>
</g>
<path opacity="0.31" d="M59.8584 82.4398C59.8509 82.4398 59.8432 82.4392 59.8357 82.4379C59.7705 82.4263 59.7279 82.3675 59.7403 82.3065C60.2393 79.8599 58.9408 77.5079 57.685 75.2334C56.4638 73.0216 55.2009 70.7342 55.5156 68.3029C55.9573 64.8915 59.3373 62.5548 61.8412 61.0939C61.897 61.0618 61.9712 61.077 62.0066 61.1298C62.0415 61.1825 62.0244 61.2518 61.9681 61.2847C59.5059 62.721 56.1828 65.0141 55.7536 68.3301C55.4481 70.6925 56.6936 72.9485 57.8982 75.1304C59.1725 77.4388 60.4904 79.8257 59.9759 82.3486C59.965 82.4023 59.9146 82.4398 59.8584 82.4398Z" fill="white"/>
<g opacity="0.31">
<path d="M76.7878 73.6571C77.0044 74.301 77.4442 74.8664 78.0151 75.2732C78.5797 75.6891 79.258 75.9596 79.9567 76.1015C80.658 76.2348 81.3835 76.2252 82.0936 76.1054C82.8039 75.9911 83.4932 75.7673 84.1589 75.4946C84.8233 75.2161 85.466 74.8878 86.0937 74.5296C86.7209 74.1697 87.3461 73.8054 87.9594 73.42C89.1905 72.6571 90.3998 71.8528 91.6472 71.0908C92.2682 70.7065 92.9061 70.3419 93.5511 69.9877C94.204 69.6447 94.8663 69.3134 95.5571 69.0335C96.9344 68.4685 98.3752 68.0105 99.9158 67.9096C100.3 67.8871 100.691 67.9011 101.077 67.96C101.464 68.0175 101.847 68.1231 102.202 68.2898L102.334 68.3526L102.46 68.426C102.544 68.4758 102.629 68.5226 102.71 68.5751C102.863 68.6923 103.025 68.7994 103.157 68.9363C103.44 69.1922 103.665 69.4954 103.854 69.8095C104.235 70.4417 104.434 71.1372 104.57 71.8272C104.706 72.5196 104.761 73.2177 104.792 73.9128C104.795 73.9604 104.755 74.0007 104.704 74.0027C104.656 74.0046 104.614 73.9699 104.609 73.9253C104.526 73.2379 104.436 72.5515 104.271 71.8845C104.192 71.5502 104.086 71.2239 103.966 70.9048C103.898 70.7486 103.837 70.5891 103.757 70.4391L103.642 70.2124L103.509 69.9958C103.326 69.7119 103.115 69.4443 102.857 69.2254C102.736 69.1064 102.59 69.0178 102.454 68.9177C102.381 68.8737 102.305 68.8352 102.231 68.7935L102.119 68.7319L102.002 68.6805C101.375 68.4061 100.655 68.3495 99.9484 68.396C99.5935 68.4202 99.2381 68.4707 98.8851 68.5406C98.5324 68.6118 98.1823 68.7112 97.8312 68.7955C97.1394 69.0048 96.4506 69.2283 95.7887 69.5188C95.1197 69.7921 94.4769 70.123 93.8332 70.4513C93.1974 70.7952 92.5672 71.1498 91.9488 71.5268C90.7079 72.2734 89.4938 73.0692 88.2475 73.8303C87.6264 74.2129 86.9938 74.5837 86.347 74.9328C85.7014 75.2843 85.0331 75.6095 84.3382 75.8848C83.6413 76.1544 82.9145 76.3754 82.1599 76.4821C81.4101 76.5947 80.6262 76.5925 79.8791 76.4213C79.1375 76.246 78.4285 75.9358 77.842 75.4734C77.2471 75.0235 76.8039 74.394 76.61 73.7031C76.597 73.657 76.6265 73.6098 76.6757 73.5977C76.7235 73.586 76.7722 73.6115 76.787 73.655L76.7878 73.6571Z" fill="white"/>
</g>
<path d="M74.6963 109.951C79.6214 116.003 84.4561 115.212 90.6996 109.951C85.6624 110.932 79.7334 111.244 74.6963 109.951Z" fill="white"/>
<path d="M86.1606 87.5221C86.1606 88.0151 86.6754 88.366 87.1751 88.2105C89.5976 87.4567 95.8709 85.9342 100.611 88.5565C100.611 88.5565 97.9621 82.8522 86.6566 86.8456C86.3573 86.9513 86.1606 87.2226 86.1606 87.5221Z" fill="url(#paint8_linear_101_3116)"/>
<path d="M78.0246 87.5221C78.0246 88.0151 77.5098 88.366 77.0101 88.2105C74.5875 87.4567 68.3144 85.9342 63.5737 88.5565C63.5737 88.5565 66.2231 82.8522 77.5286 86.8456C77.828 86.9513 78.0246 87.2226 78.0246 87.5221Z" fill="url(#paint9_linear_101_3116)"/>
<path d="M48.977 57.5695C48.3143 57.5695 47.7773 57.0669 47.7773 56.4466V47.1232C47.7773 44.7371 49.8511 42.7959 52.4 42.7959H59.2929C59.9555 42.7959 60.4925 43.2986 60.4925 43.9189C60.4925 44.5391 59.9555 45.0418 59.2929 45.0418H52.4C51.1739 45.0418 50.1766 45.9755 50.1766 47.1232V56.4466C50.1766 57.0669 49.6396 57.5695 48.977 57.5695Z" fill="white"/>
<path d="M115.799 57.5695C115.137 57.5695 114.6 57.0669 114.6 56.4466V47.1232C114.6 45.9754 113.602 45.0418 112.376 45.0418H105.483C104.821 45.0418 104.284 44.5392 104.284 43.9189C104.284 43.2986 104.821 42.7959 105.483 42.7959H112.376C114.925 42.7959 116.999 44.7371 116.999 47.1232V56.4466C116.999 57.0669 116.462 57.5695 115.799 57.5695Z" fill="white"/>
<path d="M59.2929 131.343H52.4C49.8511 131.343 47.7773 129.402 47.7773 127.016V117.692C47.7773 117.072 48.3143 116.569 48.977 116.569C49.6395 116.569 50.1766 117.072 50.1766 117.692V127.016C50.1766 128.163 51.174 129.097 52.4 129.097H59.2929C59.9555 129.097 60.4925 129.6 60.4925 130.22C60.4925 130.84 59.9555 131.343 59.2929 131.343Z" fill="white"/>
<path d="M112.376 131.343H105.483C104.821 131.343 104.284 130.84 104.284 130.22C104.284 129.6 104.821 129.097 105.483 129.097H112.376C113.602 129.097 114.6 128.163 114.6 127.016V117.692C114.6 117.072 115.137 116.569 115.799 116.569C116.462 116.569 116.999 117.072 116.999 117.692V127.016C116.999 129.402 114.925 131.343 112.376 131.343Z" fill="white"/>
<path d="M65.6259 78.0099C66.4692 78.0099 67.1528 77.37 67.1528 76.5806C67.1528 75.7913 66.4692 75.1514 65.6259 75.1514C64.7827 75.1514 64.0991 75.7913 64.0991 76.5806C64.0991 77.37 64.7827 78.0099 65.6259 78.0099Z" fill="white"/>
<path d="M72.0654 95.4249C72.9086 95.4249 73.5922 94.785 73.5922 93.9957C73.5922 93.2063 72.9086 92.5664 72.0654 92.5664C71.2222 92.5664 70.5386 93.2063 70.5386 93.9957C70.5386 94.785 71.2222 95.4249 72.0654 95.4249Z" fill="white"/>
<path d="M55.2509 94.086C56.0942 94.086 56.7778 93.4461 56.7778 92.6568C56.7778 91.8674 56.0942 91.2275 55.2509 91.2275C54.4077 91.2275 53.7241 91.8674 53.7241 92.6568C53.7241 93.4461 54.4077 94.086 55.2509 94.086Z" fill="white"/>
<path d="M65.3193 113.088C65.513 112.32 65.0049 111.55 64.1842 111.369C63.3636 111.187 62.5412 111.663 62.3474 112.431C62.1537 113.2 62.6619 113.969 63.4825 114.151C64.3031 114.332 65.1255 113.856 65.3193 113.088Z" fill="white"/>
<path d="M83.8715 78.0099C84.7148 78.0099 85.3984 77.37 85.3984 76.5806C85.3984 75.7913 84.7148 75.1514 83.8715 75.1514C83.0283 75.1514 82.3447 75.7913 82.3447 76.5806C82.3447 77.37 83.0283 78.0099 83.8715 78.0099Z" fill="white"/>
<path d="M83.3874 126.129C84.1664 125.827 84.5364 124.991 84.2137 124.262C83.891 123.532 82.9978 123.186 82.2187 123.488C81.4397 123.79 81.0697 124.626 81.3924 125.356C81.7151 126.085 82.6083 126.431 83.3874 126.129Z" fill="white"/>
<path d="M102.476 78.0099C103.319 78.0099 104.002 77.37 104.002 76.5806C104.002 75.7913 103.319 75.1514 102.476 75.1514C101.632 75.1514 100.949 75.7913 100.949 76.5806C100.949 77.37 101.632 78.0099 102.476 78.0099Z" fill="white"/>
<path d="M92.1001 95.4249C92.9433 95.4249 93.6269 94.785 93.6269 93.9957C93.6269 93.2063 92.9433 92.5664 92.1001 92.5664C91.2568 92.5664 90.5732 93.2063 90.5732 93.9957C90.5732 94.785 91.2568 95.4249 92.1001 95.4249Z" fill="white"/>
<path d="M111.418 95.4249C112.262 95.4249 112.945 94.785 112.945 93.9957C112.945 93.2063 112.262 92.5664 111.418 92.5664C110.575 92.5664 109.892 93.2063 109.892 93.9957C109.892 94.785 110.575 95.4249 111.418 95.4249Z" fill="white"/>
<path d="M102.913 112.979C103.048 112.2 102.483 111.465 101.651 111.339C100.818 111.213 100.034 111.742 99.8989 112.521C99.7638 113.3 100.329 114.034 101.161 114.161C101.994 114.287 102.778 113.758 102.913 112.979Z" fill="white"/>
<path d="M82.8039 125.01L82.7022 124.945L63.7008 112.862L55.0713 92.6458L65.5654 76.4248L102.587 76.4369L102.635 76.5318L111.619 94.0086L111.58 94.0822L101.543 112.863L101.505 112.887L82.8039 125.01ZM63.9922 112.643L82.8018 124.604L101.264 112.637L111.221 94.006L102.362 76.7718H83.9523L65.7667 76.7598L55.4696 92.6766L63.9922 112.643Z" fill="white"/>
<path d="M82.8158 125.384L71.8691 93.9728L71.9149 93.9061L83.9826 76.252L92.2896 93.9842L92.2722 94.0418L82.8158 125.384ZM72.2619 94.0198L82.7913 124.233L91.9103 94.0083L83.9232 76.9596L72.2619 94.0198Z" fill="white"/>
<path d="M92.1814 94.1862H72.0655L55.2969 92.8521L55.3269 92.5186L72.0805 93.852L92.2214 93.8513L111.5 93.8395V94.1744L92.1814 94.1862Z" fill="white"/>
<path d="M63.5781 112.919L63.6819 112.687L72.3118 93.349L65.4994 76.6518L65.8334 76.5321L72.6968 93.3548L72.6692 93.4163L64.1155 112.584L101.127 112.582L91.8981 93.3405L102.775 76.4932L103.081 76.6665L92.3012 93.3633L101.68 112.917L63.5781 112.919Z" fill="white"/>
<defs>
<linearGradient id="paint0_linear_101_3116" x1="211.002" y1="210.071" x2="75.4098" y2="53.7266" gradientUnits="userSpaceOnUse">
<stop stop-color="#DAE3FE"/>
<stop offset="1" stop-color="#E9EFFD"/>
</linearGradient>
<linearGradient id="paint1_linear_101_3116" x1="83.1103" y1="177.921" x2="85.4946" y2="5.36883" gradientUnits="userSpaceOnUse">
<stop stop-color="#09005D"/>
<stop offset="1" stop-color="#1A0F91"/>
</linearGradient>
<linearGradient id="paint2_linear_101_3116" x1="88.3081" y1="162.207" x2="113.688" y2="104.764" gradientUnits="userSpaceOnUse">
<stop stop-color="#FE7062"/>
<stop offset="1" stop-color="#FF928E"/>
</linearGradient>
<linearGradient id="paint3_linear_101_3116" x1="81.7786" y1="148.78" x2="83.0405" y2="123.168" gradientUnits="userSpaceOnUse">
<stop stop-color="#FEBBBA"/>
<stop offset="1" stop-color="#FF928E"/>
</linearGradient>
<linearGradient id="paint4_linear_101_3116" x1="84.7192" y1="134.275" x2="80.9332" y2="65.52" gradientUnits="userSpaceOnUse">
<stop stop-color="#FEBBBA"/>
<stop offset="1" stop-color="#FF928E"/>
</linearGradient>
<linearGradient id="paint5_linear_101_3116" x1="107.113" y1="133.042" x2="103.327" y2="64.288" gradientUnits="userSpaceOnUse">
<stop stop-color="#FEBBBA"/>
<stop offset="1" stop-color="#FF928E"/>
</linearGradient>
<linearGradient id="paint6_linear_101_3116" x1="62.1816" y1="135.516" x2="58.3957" y2="66.7619" gradientUnits="userSpaceOnUse">
<stop stop-color="#FEBBBA"/>
<stop offset="1" stop-color="#FF928E"/>
</linearGradient>
<linearGradient id="paint7_linear_101_3116" x1="79.4659" y1="44.3588" x2="79.4659" y2="78.4966" gradientUnits="userSpaceOnUse">
<stop stop-color="#09005D"/>
<stop offset="1" stop-color="#1A0F91"/>
</linearGradient>
<linearGradient id="paint8_linear_101_3116" x1="93.2571" y1="89.2153" x2="93.7104" y2="84.4265" gradientUnits="userSpaceOnUse">
<stop stop-color="#09005D"/>
<stop offset="1" stop-color="#1A0F91"/>
</linearGradient>
<linearGradient id="paint9_linear_101_3116" x1="70.9282" y1="89.2153" x2="70.4749" y2="84.4265" gradientUnits="userSpaceOnUse">
<stop stop-color="#09005D"/>
<stop offset="1" stop-color="#1A0F91"/>
</linearGradient>
</defs>
</svg>
