<svg width="200" height="186" viewBox="0 0 200 186" fill="none" xmlns="http://www.w3.org/2000/svg">
<path d="M191.615 125.478C171.354 169.124 117.872 187.871 75.9679 184.675C64.5265 183.802 41.506 182.046 23.5313 166.38C-10.9877 136.295 -5.6714 73.4084 27.3732 36.3845C31.6287 31.6166 61.0843 -0.328133 106.985 0.0994683C140.592 0.412562 164.18 17.9085 167.048 20.0881C170.671 22.8416 178.663 29.3848 185.865 39.7651C202.788 64.1553 204.276 98.2042 191.615 125.478Z" fill="#FEE8DA"/>
<path d="M193.52 67.447C194.213 66.9617 195.145 67.415 195.194 68.2574C195.931 81.1519 197.195 156.439 127.749 171.969C127.749 171.969 114.336 122.918 193.52 67.447Z" fill="#91B3FA"/>
<path opacity="0.48" d="M189.326 79.9119C187.47 83.6363 185.542 87.3192 183.582 90.9871C181.62 94.6539 179.618 98.2986 177.574 101.92C175.53 105.542 173.445 109.14 171.318 112.715C169.19 116.288 167.008 119.829 164.783 123.343C160.321 130.363 155.657 137.262 150.635 143.898C148.134 147.224 145.515 150.463 142.779 153.599C140.039 156.732 137.174 159.763 134.084 162.561C133.914 162.715 133.656 162.702 133.509 162.533C133.361 162.365 133.379 162.103 133.549 161.949L133.55 161.948L133.552 161.947C136.621 159.195 139.481 156.198 142.22 153.096C144.955 149.99 147.578 146.777 150.086 143.474C155.123 136.883 159.81 130.019 164.298 123.032C166.536 119.533 168.732 116.007 170.874 112.447C173.015 108.887 175.115 105.302 177.174 101.693C179.233 98.0844 181.251 94.452 183.228 90.7973C185.203 87.1422 187.149 83.4684 189.018 79.7605L189.019 79.759C189.063 79.6721 189.167 79.636 189.251 79.6785C189.336 79.7209 189.37 79.825 189.326 79.9119Z" fill="white"/>
<path d="M181.562 0.348155C182.307 -0.358006 183.492 0.0674397 183.688 1.10797C186.687 17.0353 200.577 110.481 120.426 140.087C120.426 140.087 96.3828 81.0711 181.562 0.348155Z" fill="#BDD0FB"/>
<path opacity="0.48" d="M179.16 13.1437C179.278 13.1852 179.341 13.3196 179.303 13.4442C177.78 18.3783 176.164 23.273 174.507 28.1546C172.848 33.0349 171.137 37.8949 169.372 42.7331C165.842 52.4096 162.109 62.0044 158.099 71.4715C154.083 80.934 149.805 90.2805 145.053 99.3631C142.69 103.912 140.172 108.372 137.494 112.727C134.811 117.076 131.962 121.322 128.8 125.316C128.612 125.554 128.278 125.584 128.054 125.384C127.83 125.184 127.801 124.829 127.99 124.591L127.991 124.589L127.993 124.587C131.136 120.658 133.986 116.46 136.673 112.152C139.356 107.838 141.885 103.412 144.262 98.8922C149.042 89.8681 153.357 80.5649 157.412 71.1405C161.462 61.7112 165.238 52.1481 168.812 42.5007C170.599 37.6768 172.333 32.8306 174.014 27.9636C175.693 23.0966 177.333 18.211 178.876 13.2965L178.877 13.2944C178.916 13.1695 179.043 13.102 179.16 13.1437Z" fill="white"/>
<path d="M155.561 178.618L56.7272 177.243C48.5968 177.13 42.0274 171.999 41.9173 165.675C41.4282 137.587 40.7166 39.3622 41.6438 12.6437C41.8031 8.05147 46.5881 4.39613 52.4946 4.34571C75.4632 4.14981 130.689 4.08101 156.273 7.53501C161.661 8.26237 165.642 11.8622 165.749 16.111C166.347 39.6478 167.781 143.782 166.589 170.484C166.384 175.089 161.487 178.701 155.561 178.618Z" fill="url(#paint0_linear_101_4009)"/>
<path d="M153.894 173.812L56.7146 172.46C51.8018 172.392 47.8454 169.373 47.83 165.68L47.7254 16.6167C47.7101 12.956 51.6756 10.0106 56.5465 10.0647L152.862 11.1554C156.344 11.1941 159.165 13.3188 159.209 15.9363L160.909 168.572C160.958 171.499 157.789 173.867 153.894 173.812Z" fill="#B8CFFF"/>
<path d="M166.032 155.305C164.904 152.061 162.918 149.176 160.315 146.839C157.024 143.883 152.746 141.802 147.97 140.972C147.97 140.972 141.771 139.965 134.969 138.318C132.747 137.779 130.369 138.23 128.587 139.518C123.835 142.951 114.912 147.42 100.895 147.119C88.1984 146.846 80.901 143.273 76.945 140.197C75.104 138.766 72.5682 138.257 70.2123 138.864C65.0912 140.185 60.8317 140.972 60.8317 140.972C52.2786 142.458 41.4045 147.957 38.8498 155.305C36.4021 162.345 34.5054 169.869 34.239 179.571C34.1421 183.098 35.6348 184.984 39.637 184.984L165.95 185.999C169.952 185.999 171.085 181.406 170.988 177.879C170.721 168.178 168.48 162.345 166.032 155.305Z" fill="#4649EE"/>
<path d="M100.895 147.721C118.178 148.118 130.295 141.597 133.819 138.132C126.812 136.091 117.661 132.588 117.551 129.684L116.496 101.706H88.6604L87.6052 129.684C87.4883 132.784 76.8209 136.833 70.2119 138.918C73.0377 142.312 84.5142 147.346 100.895 147.721Z" fill="url(#paint1_linear_101_4009)"/>
<path d="M78.1655 76.8933C78.1655 76.8933 82.1711 117.691 93.8692 122.076C93.8692 122.076 103.362 125.92 111.291 121.571C111.291 121.571 124.37 110.379 123.43 77.2039C123.43 77.2039 124.513 57.9815 101.954 56.3906C75.5224 54.5267 78.1655 76.8933 78.1655 76.8933Z" fill="url(#paint2_linear_101_4009)"/>
<path d="M121.118 91.2382C121.118 91.2382 123.1 85.6465 126.404 85.6465C129.708 85.6465 125.743 100.558 121.118 100.558V91.2382Z" fill="url(#paint3_linear_101_4009)"/>
<path d="M82.5095 89.9628C82.5095 89.9628 79.7838 85.2274 76.5099 85.6464C73.2362 86.0652 77.9262 101.118 82.5095 100.532V89.9628Z" fill="url(#paint4_linear_101_4009)"/>
<path d="M81.7713 87.2223C80.5021 87.7519 79.0219 87.1608 78.5479 85.9337C77.7141 83.7749 76.4337 80.4942 75.3967 77.9871C73.7081 73.9046 64.7829 68.6882 74.1906 58.482C83.5983 48.2759 88.926 59.3529 95.1874 56.4226C101.449 53.4924 108.927 46.6883 115.44 50.9975C121.953 55.3068 117.611 59.3893 119.782 60.5233C121.953 61.6573 125.33 55.7604 127.742 63.6985C129.609 69.8403 126.569 81.1473 125.097 85.9504C124.74 87.1169 123.328 87.6734 122.192 87.0957C121.593 86.7908 121.198 86.2244 121.14 85.5861C120.977 83.7763 120.594 79.7666 120.023 75.2655C119.246 69.1404 113.3 77.6265 101.706 78.8274C90.1114 80.0284 91.0763 74.1315 85.5282 74.1315C83.1875 74.1315 83.1166 81.8079 83.1948 85.117C83.2161 86.0244 82.6536 86.8541 81.7713 87.2223Z" fill="url(#paint5_linear_101_4009)"/>
<g opacity="0.31">
<path d="M78.3546 81.5193C78.5908 81.3749 78.601 81.0497 78.5409 80.7696C78.5138 80.6271 78.4577 80.4831 78.4083 80.3358C78.3565 80.1904 78.3133 80.0426 78.2545 79.8994C78.0311 79.3228 77.7515 78.7668 77.451 78.2211C76.8295 77.1378 76.1223 76.0951 75.4281 75.0322C75.0855 74.4979 74.7422 73.9612 74.4351 73.4006C74.1271 72.8417 73.8344 72.2689 73.6151 71.6651C73.1495 70.4647 72.9456 69.178 72.9646 67.9012C73.0043 66.6243 73.2575 65.3491 73.7575 64.1571C74.2501 62.9637 74.9923 61.8592 75.9183 60.9239C77.7752 59.0581 80.3633 57.8581 83.0308 57.6692C83.0816 57.6656 83.1259 57.7014 83.1297 57.7492C83.1333 57.794 83.0992 57.8335 83.0532 57.8413C80.4695 58.2698 78.1021 59.5312 76.387 61.3265C74.6758 63.1253 73.7023 65.5038 73.6297 67.9164C73.6042 69.1209 73.7696 70.3349 74.1954 71.4758C74.6025 72.6249 75.2178 73.7142 75.8693 74.7872C76.5214 75.8612 77.223 76.9242 77.7935 78.0598C78.0736 78.6297 78.3321 79.2104 78.5327 79.8112C78.5858 79.9601 78.6232 80.1142 78.6691 80.2654C78.7125 80.4158 78.7611 80.5677 78.7823 80.7333C78.8042 80.8959 78.8098 81.0647 78.7694 81.2348C78.7323 81.4032 78.6215 81.5776 78.4496 81.6679C78.4052 81.6913 78.349 81.6763 78.3241 81.6345C78.3003 81.5944 78.3143 81.544 78.3546 81.5193Z" fill="white"/>
</g>
<path opacity="0.31" d="M79.5308 81.9836C79.5233 81.9836 79.5156 81.9829 79.508 81.9817C79.4429 81.97 79.4003 81.911 79.4127 81.8497C79.9117 79.3924 78.6132 77.0299 77.3574 74.7455C76.1362 72.5239 74.8733 70.2264 75.188 67.7844C75.6297 64.358 79.0096 62.011 81.5136 60.5436C81.5693 60.5115 81.6436 60.5267 81.6789 60.5798C81.7139 60.6326 81.6968 60.7022 81.6405 60.7353C79.1783 62.178 75.8552 64.4812 75.426 67.8118C75.1205 70.1846 76.366 72.4505 77.5705 74.642C78.8449 76.9605 80.1628 79.358 79.6483 81.892C79.6373 81.9459 79.587 81.9836 79.5308 81.9836Z" fill="white"/>
<g opacity="0.31">
<path d="M96.4601 73.162C96.6768 73.8086 97.1165 74.3765 97.6875 74.7851C98.2521 75.2029 98.9304 75.4746 99.629 75.6171C100.33 75.751 101.056 75.7413 101.766 75.621C102.476 75.5063 103.166 75.2815 103.831 75.0076C104.496 74.7278 105.138 74.3981 105.766 74.0383C106.393 73.6768 107.018 73.3109 107.632 72.9238C108.863 72.1575 110.072 71.3497 111.32 70.5843C111.941 70.1984 112.578 69.8322 113.223 69.4763C113.876 69.1319 114.539 68.7991 115.23 68.518C116.607 67.9505 118.048 67.4905 119.588 67.3891C119.972 67.3665 120.363 67.3806 120.75 67.4398C121.136 67.4976 121.519 67.6036 121.874 67.771L122.007 67.8341L122.133 67.9079C122.216 67.9578 122.301 68.0049 122.382 68.0576C122.535 68.1753 122.697 68.2828 122.829 68.4204C123.113 68.6774 123.337 68.9819 123.526 69.2974C123.907 69.9324 124.106 70.631 124.242 71.324C124.379 72.0194 124.433 72.7207 124.465 73.4187C124.467 73.4666 124.427 73.5071 124.377 73.5091C124.328 73.511 124.286 73.4761 124.281 73.4313C124.198 72.7409 124.108 72.0514 123.943 71.3816C123.864 71.0458 123.758 70.718 123.638 70.3975C123.57 70.2406 123.509 70.0805 123.429 69.9297L123.314 69.7021L123.181 69.4846C122.998 69.1993 122.787 68.9306 122.529 68.7107C122.409 68.5912 122.262 68.5023 122.126 68.4017C122.054 68.3575 121.977 68.3188 121.903 68.2769L121.792 68.215L121.675 68.1635C121.047 67.8879 120.328 67.831 119.621 67.8777C119.266 67.902 118.91 67.9527 118.558 68.023C118.205 68.0944 117.855 68.1943 117.504 68.2789C116.812 68.4892 116.123 68.7136 115.461 69.0054C114.792 69.2799 114.149 69.6123 113.506 69.9421C112.87 70.2875 112.24 70.6436 111.621 71.0222C110.38 71.7721 109.166 72.5715 107.92 73.3359C107.299 73.7202 106.666 74.0927 106.019 74.4432C105.374 74.7963 104.705 75.1229 104.011 75.3994C103.314 75.6702 102.587 75.8922 101.832 75.9994C101.082 76.1124 100.299 76.1102 99.5515 75.9384C98.8098 75.7623 98.1009 75.4506 97.5144 74.9863C96.9194 74.5343 96.4763 73.9021 96.2824 73.2082C96.2694 73.1619 96.2988 73.1145 96.3481 73.1023C96.3958 73.0905 96.4446 73.1161 96.4593 73.1598L96.4601 73.162Z" fill="white"/>
</g>
<path d="M94.3682 109.617C99.2933 115.695 104.128 114.901 110.371 109.617C105.334 110.602 99.4053 110.915 94.3682 109.617Z" fill="white"/>
<path d="M105.833 87.088C105.833 87.5831 106.347 87.9356 106.847 87.7794C109.269 87.0223 115.543 85.4931 120.283 88.1269C120.283 88.1269 117.634 82.3975 106.328 86.4085C106.029 86.5147 105.833 86.7871 105.833 87.088Z" fill="url(#paint6_linear_101_4009)"/>
<path d="M97.6968 87.088C97.6968 87.5831 97.182 87.9356 96.6822 87.7794C94.2596 87.0223 87.9865 85.4931 83.2458 88.1269C83.2458 88.1269 85.8952 82.3975 97.2007 86.4085C97.5001 86.5147 97.6968 86.7871 97.6968 87.088Z" fill="url(#paint7_linear_101_4009)"/>
<path d="M68.6493 57.0032C67.9867 57.0032 67.4497 56.4984 67.4497 55.8753V46.5109C67.4497 44.1143 69.5235 42.1646 72.0724 42.1646H78.9653C79.6279 42.1646 80.1649 42.6695 80.1649 43.2925C80.1649 43.9154 79.6279 44.4204 78.9653 44.4204H72.0724C70.8463 44.4204 69.8489 45.3582 69.8489 46.5109V55.8753C69.8489 56.4984 69.312 57.0032 68.6493 57.0032Z" fill="white"/>
<path d="M135.471 57.0032C134.809 57.0032 134.272 56.4984 134.272 55.8753V46.5109C134.272 45.3581 133.274 44.4204 132.048 44.4204H125.155C124.493 44.4204 123.956 43.9155 123.956 43.2925C123.956 42.6694 124.493 42.1646 125.155 42.1646H132.048C134.597 42.1646 136.671 44.1143 136.671 46.5109V55.8753C136.671 56.4984 136.134 57.0032 135.471 57.0032Z" fill="white"/>
<path d="M78.965 131.102H72.0722C69.5232 131.102 67.4495 129.153 67.4495 126.756V117.392C67.4495 116.769 67.9864 116.264 68.6491 116.264C69.3116 116.264 69.8487 116.769 69.8487 117.392V126.756C69.8487 127.909 70.8461 128.847 72.0722 128.847H78.965C79.6276 128.847 80.1646 129.351 80.1646 129.974C80.1646 130.597 79.6276 131.102 78.965 131.102Z" fill="white"/>
<path d="M132.048 131.102H125.155C124.493 131.102 123.956 130.598 123.956 129.975C123.956 129.351 124.493 128.847 125.155 128.847H132.048C133.274 128.847 134.272 127.909 134.272 126.756V117.392C134.272 116.769 134.809 116.264 135.471 116.264C136.134 116.264 136.671 116.769 136.671 117.392V126.756C136.671 129.153 134.597 131.102 132.048 131.102Z" fill="white"/>
<defs>
<linearGradient id="paint0_linear_101_4009" x1="102.782" y1="177.886" x2="105.188" y2="4.57358" gradientUnits="userSpaceOnUse">
<stop stop-color="#09005D"/>
<stop offset="1" stop-color="#1A0F91"/>
</linearGradient>
<linearGradient id="paint1_linear_101_4009" x1="101.45" y1="148.616" x2="102.723" y2="122.891" gradientUnits="userSpaceOnUse">
<stop stop-color="#FEBBBA"/>
<stop offset="1" stop-color="#FF928E"/>
</linearGradient>
<linearGradient id="paint2_linear_101_4009" x1="104.392" y1="134.046" x2="100.572" y2="64.9907" gradientUnits="userSpaceOnUse">
<stop stop-color="#FEBBBA"/>
<stop offset="1" stop-color="#FF928E"/>
</linearGradient>
<linearGradient id="paint3_linear_101_4009" x1="126.786" y1="132.808" x2="122.966" y2="63.7534" gradientUnits="userSpaceOnUse">
<stop stop-color="#FEBBBA"/>
<stop offset="1" stop-color="#FF928E"/>
</linearGradient>
<linearGradient id="paint4_linear_101_4009" x1="81.854" y1="135.293" x2="78.0347" y2="66.2383" gradientUnits="userSpaceOnUse">
<stop stop-color="#FEBBBA"/>
<stop offset="1" stop-color="#FF928E"/>
</linearGradient>
<linearGradient id="paint5_linear_101_4009" x1="99.1387" y1="43.7354" x2="99.1387" y2="78.0235" gradientUnits="userSpaceOnUse">
<stop stop-color="#09005D"/>
<stop offset="1" stop-color="#1A0F91"/>
</linearGradient>
<linearGradient id="paint6_linear_101_4009" x1="112.929" y1="88.7886" x2="113.386" y2="83.9791" gradientUnits="userSpaceOnUse">
<stop stop-color="#09005D"/>
<stop offset="1" stop-color="#1A0F91"/>
</linearGradient>
<linearGradient id="paint7_linear_101_4009" x1="90.6003" y1="88.7886" x2="90.1431" y2="83.9791" gradientUnits="userSpaceOnUse">
<stop stop-color="#09005D"/>
<stop offset="1" stop-color="#1A0F91"/>
</linearGradient>
</defs>
</svg>
