<svg width="129" height="29" viewBox="0 0 129 29" fill="none" xmlns="http://www.w3.org/2000/svg">
<path d="M58.5799 15.9893C58.5799 18.2893 58.144 20.246 57.2721 21.8594C56.407 23.4728 55.2261 24.7051 53.7294 25.5564C52.2396 26.4009 50.5644 26.8231 48.7038 26.8231C46.8296 26.8231 45.1475 26.3975 43.6577 25.5461C42.1678 24.6948 40.9904 23.4625 40.1253 21.8491C39.2603 20.2357 38.8278 18.2824 38.8278 15.9893C38.8278 13.6894 39.2603 11.7327 40.1253 10.1193C40.9904 8.5059 42.1678 7.27697 43.6577 6.43251C45.1475 5.58118 46.8296 5.15552 48.7038 5.15552C50.5644 5.15552 52.2396 5.58118 53.7294 6.43251C55.2261 7.27697 56.407 8.5059 57.2721 10.1193C58.144 11.7327 58.5799 13.6894 58.5799 15.9893ZM54.059 15.9893C54.059 14.4995 53.8358 13.2431 53.3896 12.2201C52.9502 11.1972 52.3289 10.4214 51.5256 9.89274C50.7223 9.36409 49.7817 9.09977 48.7038 9.09977C47.626 9.09977 46.6854 9.36409 45.8821 9.89274C45.0788 10.4214 44.4541 11.1972 44.0078 12.2201C43.5684 13.2431 43.3487 14.4995 43.3487 15.9893C43.3487 17.4791 43.5684 18.7355 44.0078 19.7585C44.4541 20.7815 45.0788 21.5573 45.8821 22.0859C46.6854 22.6146 47.626 22.8789 48.7038 22.8789C49.7817 22.8789 50.7223 22.6146 51.5256 22.0859C52.3289 21.5573 52.9502 20.7815 53.3896 19.7585C53.8358 18.7355 54.059 17.4791 54.059 15.9893Z" fill="#457273"/>
<path d="M64.329 26.5348H59.5506L66.8315 5.44387H72.5779L79.8485 26.5348H75.0701L69.7871 10.2635H69.6223L64.329 26.5348ZM64.0303 18.2447H75.3173V21.7255H64.0303V18.2447Z" fill="#457273"/>
<path d="M84.869 26.8025C84.1893 26.8025 83.6057 26.5622 83.1183 26.0817C82.6377 25.5942 82.3974 25.0106 82.3974 24.3309C82.3974 23.6581 82.6377 23.0814 83.1183 22.6008C83.6057 22.1202 84.1893 21.88 84.869 21.88C85.5281 21.88 86.1048 22.1202 86.5991 22.6008C87.0934 23.0814 87.3406 23.6581 87.3406 24.3309C87.3406 24.7841 87.2239 25.1994 86.9904 25.577C86.7639 25.9478 86.4652 26.2464 86.0945 26.473C85.7237 26.6927 85.3152 26.8025 84.869 26.8025Z" fill="#457273"/>
<path d="M91.0248 26.5348V5.44387H95.484V14.7432H95.762L103.352 5.44387H108.697L100.87 14.8874L108.789 26.5348H103.455L97.6775 17.8636L95.484 20.5412V26.5348H91.0248Z" fill="#457273"/>
<path d="M123.815 12.2613C123.67 11.7602 123.468 11.3173 123.207 10.9329C122.946 10.5415 122.627 10.212 122.249 9.94423C121.879 9.6696 121.453 9.46021 120.972 9.31603C120.499 9.17185 119.973 9.09977 119.397 9.09977C118.319 9.09977 117.371 9.36752 116.554 9.90303C115.744 10.4385 115.113 11.2178 114.659 12.2407C114.206 13.2568 113.98 14.4995 113.98 15.9687C113.98 17.438 114.203 18.6875 114.649 19.7173C115.095 20.7471 115.727 21.5332 116.544 22.0756C117.361 22.6111 118.326 22.8789 119.438 22.8789C120.447 22.8789 121.309 22.7004 122.023 22.3434C122.744 21.9795 123.293 21.468 123.67 20.8089C124.055 20.1498 124.247 19.3706 124.247 18.4712L125.153 18.6051H119.716V15.2478H128.542V17.9048C128.542 19.7585 128.15 21.3513 127.368 22.6832C126.585 24.0083 125.507 25.0312 124.134 25.7521C122.761 26.4661 121.189 26.8231 119.417 26.8231C117.44 26.8231 115.703 26.3872 114.206 25.5153C112.71 24.6365 111.542 23.3904 110.705 21.777C109.874 20.1567 109.459 18.2344 109.459 16.0099C109.459 14.3004 109.706 12.7763 110.2 11.4375C110.701 10.0918 111.402 8.95216 112.301 8.01845C113.201 7.08473 114.248 6.37415 115.442 5.8867C116.637 5.39924 117.931 5.15552 119.325 5.15552C120.519 5.15552 121.631 5.33059 122.661 5.68073C123.691 6.02401 124.604 6.51146 125.401 7.14309C126.204 7.77472 126.86 8.52649 127.368 9.39842C127.876 10.2635 128.202 11.2178 128.346 12.2613H123.815Z" fill="#457273"/>
<path d="M21.63 20.2116C24.9929 18.0933 27.4327 14.7568 28.4529 10.881L30.8531 11.4403C30.9523 11.4642 31.0561 11.4604 31.1533 11.4293C31.2506 11.3981 31.3376 11.3408 31.4052 11.2634C31.4736 11.1865 31.5197 11.0921 31.5386 10.9904C31.5575 10.8888 31.5484 10.7838 31.5123 10.687L27.6642 0.363437C27.6302 0.276621 27.576 0.199478 27.506 0.138671C27.4361 0.0778645 27.3525 0.0352246 27.2627 0.0144356C27.1728 -0.00635335 27.0793 -0.0046659 26.9902 0.0193521C26.9012 0.0433701 26.8192 0.0889961 26.7514 0.152288L18.8242 7.71947C18.7517 7.79095 18.6994 7.88077 18.6726 7.97963C18.6459 8.07849 18.6457 8.18279 18.6721 8.28174C18.6986 8.38068 18.7506 8.47067 18.8229 8.54239C18.8952 8.6141 18.9852 8.66493 19.0834 8.68962L21.4666 9.24887C20.6124 12.4068 18.7454 15.1872 16.1597 17.1523C13.5739 19.1174 10.4163 20.1555 7.1841 20.1032C4.65277 18.9159 2.51706 17.0085 1.03727 14.6133C0.956609 14.488 0.830652 14.3996 0.686429 14.3673C0.542206 14.335 0.391212 14.3612 0.265855 14.4403C0.140499 14.5195 0.05077 14.6452 0.0159276 14.7906C-0.0189148 14.936 0.00390608 15.0895 0.0794923 15.218C4.42811 22.5039 14.5776 24.8732 21.63 20.2116Z" fill="black"/>
<path d="M21.63 20.2116C24.9929 18.0933 27.4327 14.7568 28.4529 10.881L30.8531 11.4403C30.9523 11.4642 31.0561 11.4604 31.1533 11.4293C31.2506 11.3981 31.3376 11.3408 31.4052 11.2634C31.4736 11.1865 31.5197 11.0921 31.5386 10.9904C31.5575 10.8888 31.5484 10.7838 31.5123 10.687L27.6642 0.363437C27.6302 0.276621 27.576 0.199478 27.506 0.138671C27.4361 0.0778645 27.3525 0.0352246 27.2627 0.0144356C27.1728 -0.00635335 27.0793 -0.0046659 26.9902 0.0193521C26.9012 0.0433701 26.8192 0.0889961 26.7514 0.152288L18.8242 7.71947C18.7517 7.79095 18.6994 7.88077 18.6726 7.97963C18.6459 8.07849 18.6457 8.18279 18.6721 8.28174C18.6986 8.38068 18.7506 8.47067 18.8229 8.54239C18.8952 8.6141 18.9852 8.66493 19.0834 8.68962L21.4666 9.24887C20.6124 12.4068 18.7454 15.1872 16.1597 17.1523C13.5739 19.1174 10.4163 20.1555 7.1841 20.1032C4.65277 18.9159 2.51706 17.0085 1.03727 14.6133C0.956609 14.488 0.830652 14.3996 0.686429 14.3673C0.542206 14.335 0.391212 14.3612 0.265855 14.4403C0.140499 14.5195 0.05077 14.6452 0.0159276 14.7906C-0.0189148 14.936 0.00390608 15.0895 0.0794923 15.218C4.42811 22.5039 14.5776 24.8732 21.63 20.2116Z" fill="url(#paint0_linear_1_183)"/>
<path d="M16.8974 28.4293C16.8971 28.5043 16.9115 28.5786 16.9397 28.648C16.9679 28.7173 17.0094 28.7803 17.0618 28.8334C17.1142 28.8864 17.1764 28.9284 17.2449 28.957C17.3133 28.9856 17.3867 29.0002 17.4608 28.9999H21.9681C22.0421 29.0002 22.1155 28.9856 22.184 28.957C22.2524 28.9284 22.3147 28.8864 22.367 28.8334C22.4194 28.7803 22.4609 28.7173 22.4891 28.648C22.5173 28.5786 22.5317 28.5043 22.5315 28.4293V20.9819C20.8142 22.1249 18.9046 22.9392 16.8973 23.3845L16.8974 28.4293Z" fill="black"/>
<path d="M16.8974 28.4293C16.8971 28.5043 16.9115 28.5786 16.9397 28.648C16.9679 28.7173 17.0094 28.7803 17.0618 28.8334C17.1142 28.8864 17.1764 28.9284 17.2449 28.957C17.3133 28.9856 17.3867 29.0002 17.4608 28.9999H21.9681C22.0421 29.0002 22.1155 28.9856 22.184 28.957C22.2524 28.9284 22.3147 28.8864 22.367 28.8334C22.4194 28.7803 22.4609 28.7173 22.4891 28.648C22.5173 28.5786 22.5317 28.5043 22.5315 28.4293V20.9819C20.8142 22.1249 18.9046 22.9392 16.8973 23.3845L16.8974 28.4293Z" fill="url(#paint1_linear_1_183)"/>
<path d="M3.93891 24.4346C3.78961 24.435 3.64656 24.4953 3.541 24.6022C3.43543 24.7091 3.37593 24.854 3.37549 25.0052V28.4293C3.37523 28.5043 3.38963 28.5786 3.41786 28.648C3.44608 28.7174 3.48757 28.7804 3.53994 28.8334C3.59231 28.8865 3.65452 28.9285 3.72299 28.9571C3.79147 28.9857 3.86485 29.0002 3.93891 29H8.44621C8.52027 29.0002 8.59365 28.9857 8.66212 28.9571C8.73059 28.9285 8.7928 28.8865 8.84517 28.8334C8.89754 28.7804 8.93903 28.7174 8.96726 28.648C8.99548 28.5786 9.00988 28.5043 9.00962 28.4293V25.0052C9.00918 24.854 8.94968 24.7091 8.84412 24.6022C8.73855 24.4953 8.5955 24.435 8.44621 24.4346H3.93891Z" fill="black"/>
<path d="M3.93891 24.4346C3.78961 24.435 3.64656 24.4953 3.541 24.6022C3.43543 24.7091 3.37593 24.854 3.37549 25.0052V28.4293C3.37523 28.5043 3.38963 28.5786 3.41786 28.648C3.44608 28.7174 3.48757 28.7804 3.53994 28.8334C3.59231 28.8865 3.65452 28.9285 3.72299 28.9571C3.79147 28.9857 3.86485 29.0002 3.93891 29H8.44621C8.52027 29.0002 8.59365 28.9857 8.66212 28.9571C8.73059 28.9285 8.7928 28.8865 8.84517 28.8334C8.89754 28.7804 8.93903 28.7174 8.96726 28.648C8.99548 28.5786 9.00988 28.5043 9.00962 28.4293V25.0052C9.00918 24.854 8.94968 24.7091 8.84412 24.6022C8.73855 24.4953 8.5955 24.435 8.44621 24.4346H3.93891Z" fill="url(#paint2_linear_1_183)"/>
<path d="M10.1364 23.4529V28.4292C10.1361 28.5042 10.1505 28.5785 10.1787 28.6479C10.2069 28.7172 10.2484 28.7802 10.3008 28.8333C10.3532 28.8863 10.4154 28.9283 10.4839 28.9569C10.5523 28.9855 10.6257 29.0001 10.6998 28.9998H15.2071C15.2811 29.0001 15.3545 28.9855 15.423 28.9569C15.4915 28.9283 15.5537 28.8863 15.606 28.8333C15.6584 28.7802 15.6999 28.7172 15.7281 28.6479C15.7563 28.5785 15.7707 28.5042 15.7705 28.4292V23.5898C13.8985 23.8705 11.9929 23.8241 10.1364 23.4529Z" fill="black"/>
<path d="M10.1364 23.4529V28.4292C10.1361 28.5042 10.1505 28.5785 10.1787 28.6479C10.2069 28.7172 10.2484 28.7802 10.3008 28.8333C10.3532 28.8863 10.4154 28.9283 10.4839 28.9569C10.5523 28.9855 10.6257 29.0001 10.6998 28.9998H15.2071C15.2811 29.0001 15.3545 28.9855 15.423 28.9569C15.4915 28.9283 15.5537 28.8863 15.606 28.8333C15.6584 28.7802 15.6999 28.7172 15.7281 28.6479C15.7563 28.5785 15.7707 28.5042 15.7705 28.4292V23.5898C13.8985 23.8705 11.9929 23.8241 10.1364 23.4529Z" fill="url(#paint3_linear_1_183)"/>
<path d="M23.6583 20.1659V28.4293C23.6581 28.5043 23.6725 28.5787 23.7007 28.648C23.7289 28.7174 23.7704 28.7804 23.8228 28.8334C23.8751 28.8865 23.9374 28.9285 24.0058 28.9571C24.0743 28.9857 24.1477 29.0003 24.2217 29H28.729C28.8031 29.0003 28.8765 28.9857 28.945 28.9571C29.0134 28.9285 29.0756 28.8865 29.128 28.8334C29.1804 28.7804 29.2219 28.7174 29.2501 28.648C29.2783 28.5787 29.2927 28.5043 29.2925 28.4293V12.2506L29.2248 12.2335C28.1745 15.3718 26.2392 18.1295 23.6583 20.1659Z" fill="black"/>
<path d="M23.6583 20.1659V28.4293C23.6581 28.5043 23.6725 28.5787 23.7007 28.648C23.7289 28.7174 23.7704 28.7804 23.8228 28.8334C23.8751 28.8865 23.9374 28.9285 24.0058 28.9571C24.0743 28.9857 24.1477 29.0003 24.2217 29H28.729C28.8031 29.0003 28.8765 28.9857 28.945 28.9571C29.0134 28.9285 29.0756 28.8865 29.128 28.8334C29.1804 28.7804 29.2219 28.7174 29.2501 28.648C29.2783 28.5787 29.2927 28.5043 29.2925 28.4293V12.2506L29.2248 12.2335C28.1745 15.3718 26.2392 18.1295 23.6583 20.1659Z" fill="url(#paint4_linear_1_183)"/>
<path d="M8.44619 15.6405C9.89481 15.6405 11.3109 15.2054 12.5154 14.3902C13.7199 13.575 14.6587 12.4163 15.213 11.0607C15.7674 9.7051 15.9124 8.21343 15.6298 6.77432C15.3472 5.33522 14.6496 4.01331 13.6253 2.97578C12.601 1.93824 11.2959 1.23167 9.87511 0.94541C8.45432 0.659154 6.98163 0.806071 5.64328 1.36758C4.30492 1.9291 3.16101 2.87998 2.3562 4.1C1.55139 5.32001 1.12183 6.75436 1.12183 8.22166C1.12369 10.1887 1.89595 12.0746 3.26914 13.4655C4.64232 14.8563 6.50422 15.6386 8.44619 15.6405ZM10.0857 8.79234H6.80668C6.44076 8.79174 6.09 8.64424 5.83126 8.38216C5.57252 8.12008 5.42689 7.7648 5.42631 7.39416V5.73352C5.42572 5.36199 5.57078 5.00543 5.82961 4.74219C6.08845 4.47894 6.43988 4.33056 6.80668 4.32964H7.88279V3.65625C7.88326 3.50521 7.94282 3.36052 8.04843 3.25388C8.15404 3.14725 8.29708 3.08737 8.4462 3.08737C8.59532 3.08737 8.73835 3.14725 8.84396 3.25388C8.94957 3.36052 9.00914 3.50521 9.00961 3.65625V4.32964H10.0857C10.4525 4.33056 10.8039 4.47894 11.0628 4.74218C11.3216 5.00543 11.4667 5.36199 11.4661 5.73351C11.4661 5.88487 11.4067 6.03002 11.3011 6.13704C11.1954 6.24407 11.0521 6.30419 10.9027 6.30419C10.7532 6.30419 10.6099 6.24407 10.5043 6.13704C10.3986 6.03002 10.3393 5.88487 10.3393 5.73351C10.3397 5.66472 10.3134 5.59852 10.2659 5.54934C10.2184 5.50017 10.1536 5.472 10.0857 5.47099H6.80668C6.73877 5.472 6.67401 5.50017 6.62651 5.54935C6.57902 5.59852 6.55264 5.66472 6.55314 5.73351V7.39416C6.553 7.42793 6.55946 7.46138 6.57215 7.49261C6.58485 7.52383 6.60352 7.55219 6.62709 7.57607C6.65066 7.59994 6.67866 7.61885 6.70949 7.63171C6.74031 7.64457 6.77334 7.65111 6.80668 7.65097H10.0857C10.4516 7.65157 10.8024 7.79906 11.0611 8.06114C11.3199 8.32322 11.4655 8.6785 11.4661 9.04914V10.7098C11.4667 11.0814 11.3216 11.4379 11.0628 11.7012C10.8039 11.9644 10.4525 12.1128 10.0857 12.1137H9.0096V12.7871C9.00984 12.8622 8.99544 12.9366 8.96723 13.006C8.93902 13.0755 8.89756 13.1386 8.84522 13.1918C8.79287 13.245 8.73069 13.2872 8.66221 13.3159C8.59374 13.3447 8.52033 13.3596 8.44619 13.3596C8.37205 13.3596 8.29864 13.3447 8.23017 13.3159C8.1617 13.2872 8.09951 13.245 8.04717 13.1918C7.99483 13.1386 7.95336 13.0755 7.92515 13.006C7.89695 12.9366 7.88255 12.8622 7.88278 12.7871V12.1137H6.80668C6.43989 12.1128 6.08847 11.9644 5.82963 11.7011C5.5708 11.4379 5.42573 11.0813 5.42631 10.7098C5.42678 10.5588 5.48634 10.4141 5.59195 10.3075C5.69756 10.2008 5.8406 10.141 5.98972 10.141C6.13884 10.141 6.28187 10.2008 6.38748 10.3075C6.49309 10.4141 6.55266 10.5588 6.55313 10.7098C6.55264 10.7786 6.57901 10.8448 6.62651 10.894C6.674 10.9432 6.73876 10.9713 6.80667 10.9724H10.0857C10.1536 10.9713 10.2184 10.9432 10.2659 10.894C10.3134 10.8448 10.3397 10.7786 10.3392 10.7098V9.04915C10.3394 9.01538 10.3329 8.98193 10.3202 8.95071C10.3075 8.91948 10.2889 8.89112 10.2653 8.86724C10.2417 8.84337 10.2137 8.82446 10.1829 8.8116C10.1521 8.79874 10.119 8.7922 10.0857 8.79234Z" fill="url(#paint5_linear_1_183)"/>
<defs>
<linearGradient id="paint0_linear_1_183" x1="15.7741" y1="22.6131" x2="15.7741" y2="2.42612e-05" gradientUnits="userSpaceOnUse">
<stop stop-color="#00B59C"/>
<stop offset="1" stop-color="#9CFFAC"/>
</linearGradient>
<linearGradient id="paint1_linear_1_183" x1="19.7144" y1="28.9999" x2="19.7144" y2="20.9819" gradientUnits="userSpaceOnUse">
<stop stop-color="#00B59C"/>
<stop offset="1" stop-color="#9CFFAC"/>
</linearGradient>
<linearGradient id="paint2_linear_1_183" x1="6.19255" y1="29" x2="6.19255" y2="24.4346" gradientUnits="userSpaceOnUse">
<stop stop-color="#00B59C"/>
<stop offset="1" stop-color="#9CFFAC"/>
</linearGradient>
<linearGradient id="paint3_linear_1_183" x1="12.9534" y1="28.9998" x2="12.9534" y2="23.4529" gradientUnits="userSpaceOnUse">
<stop stop-color="#00B59C"/>
<stop offset="1" stop-color="#9CFFAC"/>
</linearGradient>
<linearGradient id="paint4_linear_1_183" x1="26.4754" y1="29" x2="26.4754" y2="12.2335" gradientUnits="userSpaceOnUse">
<stop stop-color="#00B59C"/>
<stop offset="1" stop-color="#9CFFAC"/>
</linearGradient>
<linearGradient id="paint5_linear_1_183" x1="16.4913" y1="2.21717" x2="1.8442" y2="12.9055" gradientUnits="userSpaceOnUse">
<stop offset="0.413462" stop-color="#FF9909"/>
<stop offset="1" stop-color="#A66100"/>
</linearGradient>
</defs>
</svg>
