<svg width="35" height="36" viewBox="0 0 35 36" fill="none" xmlns="http://www.w3.org/2000/svg">
<path fill-rule="evenodd" clip-rule="evenodd" d="M24.0625 34.4062H30.625C32.4373 34.4062 33.9062 32.9373 33.9062 31.125V24.5625C33.9062 23.9587 33.4162 23.4688 32.8125 23.4688C32.2087 23.4688 31.7188 23.9587 31.7188 24.5625V31.125C31.7188 31.7288 31.2288 32.2188 30.625 32.2188H24.0625C23.4587 32.2188 22.9688 32.7087 22.9688 33.3125C22.9688 33.9162 23.4587 34.4062 24.0625 34.4062ZM10.9375 32.2188H4.375C3.77125 32.2188 3.28125 31.7288 3.28125 31.125V24.5625C3.28125 23.9587 2.79125 23.4688 2.1875 23.4688C1.58375 23.4688 1.09375 23.9587 1.09375 24.5625V31.125C1.09375 32.9373 2.56266 34.4062 4.375 34.4062H10.9375C11.5413 34.4062 12.0312 33.9162 12.0312 33.3125C12.0312 32.7087 11.5413 32.2188 10.9375 32.2188ZM16.4062 22.375V28.9375C16.4062 29.5413 16.8962 30.0312 17.5 30.0312C18.1038 30.0312 18.5938 29.5413 18.5938 28.9375V22.375C18.5938 21.7712 18.1038 21.2812 17.5 21.2812C16.8962 21.2812 16.4062 21.7712 16.4062 22.375ZM14.2188 22.375C14.2188 21.7712 13.7288 21.2812 13.125 21.2812H6.5625C5.95875 21.2812 5.46875 21.7712 5.46875 22.375V28.9375C5.46875 29.5413 5.95875 30.0312 6.5625 30.0312H13.125C13.7288 30.0312 14.2188 29.5413 14.2188 28.9375V22.375ZM29.5312 22.375C29.5312 21.7712 29.0413 21.2812 28.4375 21.2812H21.875C21.2712 21.2812 20.7812 21.7712 20.7812 22.375V28.9375C20.7812 29.5413 21.2712 30.0312 21.875 30.0312H28.4375C29.0413 30.0312 29.5312 29.5413 29.5312 28.9375V22.375ZM12.0312 23.4688V27.8438H7.65625V23.4688H12.0312ZM27.3438 23.4688V27.8438H22.9688V23.4688H27.3438ZM16.4062 19.0938H17.5C18.1038 19.0938 18.5938 18.6038 18.5938 18C18.5938 17.3962 18.1038 16.9062 17.5 16.9062H16.4062C15.8025 16.9062 15.3125 17.3962 15.3125 18C15.3125 18.6038 15.8025 19.0938 16.4062 19.0938ZM6.5625 19.0938H12.0312C12.635 19.0938 13.125 18.6038 13.125 18C13.125 17.3962 12.635 16.9062 12.0312 16.9062H6.5625C5.95875 16.9062 5.46875 17.3962 5.46875 18C5.46875 18.6038 5.95875 19.0938 6.5625 19.0938ZM26.25 16.9062H27.3438V18C27.3438 18.6038 27.8337 19.0938 28.4375 19.0938C29.0413 19.0938 29.5312 18.6038 29.5312 18V15.8125C29.5312 15.2087 29.0413 14.7188 28.4375 14.7188H26.25C25.6462 14.7188 25.1562 15.2087 25.1562 15.8125C25.1562 16.4163 25.6462 16.9062 26.25 16.9062ZM22.9688 18V12.5312H24.0625C24.6663 12.5312 25.1562 12.0413 25.1562 11.4375C25.1562 10.8337 24.6663 10.3438 24.0625 10.3438H21.875C21.2712 10.3438 20.7812 10.8337 20.7812 11.4375V18C20.7812 18.6038 21.2712 19.0938 21.875 19.0938C22.4788 19.0938 22.9688 18.6038 22.9688 18ZM16.4062 11.4375V13.625C16.4062 14.2288 16.8962 14.7188 17.5 14.7188C18.1038 14.7188 18.5938 14.2288 18.5938 13.625V11.4375C18.5938 10.8337 18.1038 10.3438 17.5 10.3438C16.8962 10.3438 16.4062 10.8337 16.4062 11.4375ZM14.2188 7.0625C14.2188 6.45875 13.7288 5.96875 13.125 5.96875H6.5625C5.95875 5.96875 5.46875 6.45875 5.46875 7.0625V13.625C5.46875 14.2288 5.95875 14.7188 6.5625 14.7188H13.125C13.7288 14.7188 14.2188 14.2288 14.2188 13.625V7.0625ZM10.9375 1.59375H4.375C2.56266 1.59375 1.09375 3.06266 1.09375 4.875V11.4375C1.09375 12.0413 1.58375 12.5312 2.1875 12.5312C2.79125 12.5312 3.28125 12.0413 3.28125 11.4375V4.875C3.28125 4.27125 3.77125 3.78125 4.375 3.78125H10.9375C11.5413 3.78125 12.0312 3.29125 12.0312 2.6875C12.0312 2.08375 11.5413 1.59375 10.9375 1.59375ZM12.0312 8.15625V12.5312H7.65625V8.15625H12.0312ZM24.0625 3.78125H30.625C31.2288 3.78125 31.7188 4.27125 31.7188 4.875V11.4375C31.7188 12.0413 32.2087 12.5312 32.8125 12.5312C33.4162 12.5312 33.9062 12.0413 33.9062 11.4375V4.875C33.9062 3.06266 32.4373 1.59375 30.625 1.59375H24.0625C23.4587 1.59375 22.9688 2.08375 22.9688 2.6875C22.9688 3.29125 23.4587 3.78125 24.0625 3.78125ZM17.5 8.15625H27.3438V11.4375C27.3438 12.0413 27.8337 12.5312 28.4375 12.5312C29.0413 12.5312 29.5312 12.0413 29.5312 11.4375V7.0625C29.5312 6.45875 29.0413 5.96875 28.4375 5.96875H17.5C16.8962 5.96875 16.4062 6.45875 16.4062 7.0625C16.4062 7.66625 16.8962 8.15625 17.5 8.15625Z" fill="#0072DE"/>
</svg>
