<svg width="24" height="24" viewBox="0 0 24 24" fill="none" xmlns="http://www.w3.org/2000/svg">
    <path fill-rule="evenodd" clip-rule="evenodd"
        d="M3 12.25C3.41421 12.25 3.75 12.5858 3.75 13V18C3.75 18.6904 4.30964 19.25 5 19.25H19C19.6904 19.25 20.25 18.6904 20.25 18V13C20.25 12.5858 20.5858 12.25 21 12.25C21.4142 12.25 21.75 12.5858 21.75 13V18C21.75 19.5188 20.5188 20.75 19 20.75H5C3.48122 20.75 2.25 19.5188 2.25 18V13C2.25 12.5858 2.58579 12.25 3 12.25Z"
        fill="#0072DE" />
    <path fill-rule="evenodd" clip-rule="evenodd"
        d="M12 14.75C11.5858 14.75 11.25 14.4142 11.25 14L11.25 5.9318L8.55352 8.88108C8.27402 9.18678 7.79962 9.20802 7.49392 8.92852C7.18822 8.64902 7.16698 8.17462 7.44648 7.86892L11.4465 3.49392C11.5886 3.33852 11.7894 3.25 12 3.25C12.2106 3.25 12.4114 3.33852 12.5535 3.49392L16.5535 7.86892C16.833 8.17462 16.8118 8.64902 16.5061 8.92852C16.2004 9.20802 15.726 9.18678 15.4465 8.88108L12.75 5.9318L12.75 14C12.75 14.4142 12.4142 14.75 12 14.75Z"
        fill="#0072DE" />
</svg>