<svg width="24" height="24" viewBox="0 0 24 24" fill="none" xmlns="http://www.w3.org/2000/svg">
    <path fill-rule="evenodd" clip-rule="evenodd"
        d="M12 2.25C9.37665 2.25 7.25 4.37665 7.25 7C7.25 9.62335 9.37665 11.75 12 11.75C14.6234 11.75 16.75 9.62335 16.75 7C16.75 4.37665 14.6234 2.25 12 2.25ZM8.75 7C8.75 5.20507 10.2051 3.75 12 3.75C13.7949 3.75 15.25 5.20507 15.25 7C15.25 8.79493 13.7949 10.25 12 10.25C10.2051 10.25 8.75 8.79493 8.75 7Z"
        fill="white" />
    <path
        d="M9.6 13.25C6.09299 13.25 3.25 16.093 3.25 19.6C3.25 20.7874 4.21259 21.75 5.4 21.75H13C13.4142 21.75 13.75 21.4142 13.75 21C13.75 20.5858 13.4142 20.25 13 20.25H5.4C5.04101 20.25 4.75 19.959 4.75 19.6C4.75 16.9214 6.92142 14.75 9.6 14.75H14.4C14.8146 14.75 15.2159 14.8018 15.5984 14.899C15.9999 15.001 16.408 14.7582 16.51 14.3568C16.612 13.9553 16.3692 13.5472 15.9678 13.4452C15.4655 13.3176 14.9401 13.25 14.4 13.25H9.6Z"
        fill="white" />
    <path
        d="M18.5 15.75C18.9142 15.75 19.25 16.0858 19.25 16.5V18.25H21C21.4142 18.25 21.75 18.5858 21.75 19C21.75 19.4142 21.4142 19.75 21 19.75H19.25V21.5C19.25 21.9142 18.9142 22.25 18.5 22.25C18.0858 22.25 17.75 21.9142 17.75 21.5V19.75H16C15.5858 19.75 15.25 19.4142 15.25 19C15.25 18.5858 15.5858 18.25 16 18.25H17.75V16.5C17.75 16.0858 18.0858 15.75 18.5 15.75Z"
        fill="white" />
</svg>