<svg width="24" height="24" viewBox="0 0 24 24" fill="none" xmlns="http://www.w3.org/2000/svg">
    <path fill-rule="evenodd" clip-rule="evenodd"
        d="M12 6.75C12.4142 6.75 12.75 7.08579 12.75 7.5V12.5C12.75 12.9142 12.4142 13.25 12 13.25C11.5858 13.25 11.25 12.9142 11.25 12.5V7.5C11.25 7.08579 11.5858 6.75 12 6.75Z"
        fill="#0072DE" />
    <path fill-rule="evenodd" clip-rule="evenodd"
        d="M12 15.25C12.4142 15.25 12.75 15.5858 12.75 16V16.5C12.75 16.9142 12.4142 17.25 12 17.25C11.5858 17.25 11.25 16.9142 11.25 16.5V16C11.25 15.5858 11.5858 15.25 12 15.25Z"
        fill="#0072DE" />
    <path fill-rule="evenodd" clip-rule="evenodd"
        d="M12 2.75C6.89137 2.75 2.75 6.89137 2.75 12C2.75 17.1086 6.89137 21.25 12 21.25C17.1086 21.25 21.25 17.1086 21.25 12C21.25 6.89137 17.1086 2.75 12 2.75ZM1.25 12C1.25 6.06294 6.06294 1.25 12 1.25C17.9371 1.25 22.75 6.06294 22.75 12C22.75 17.9371 17.9371 22.75 12 22.75C6.06294 22.75 1.25 17.9371 1.25 12Z"
        fill="#0072DE" />
</svg>